<?xml version="1.0" encoding="UTF-8" standalone="no"?>
<!DOCTYPE svg PUBLIC "-//W3C//DTD SVG 1.1//EN" "http://www.w3.org/Graphics/SVG/1.1/DTD/svg11.dtd">
<!-- Generated by Microsoft Visio, SVG Export softrealtime_diagram.svg Page-1 -->
<svg xmlns="http://www.w3.org/2000/svg" xmlns:xlink="http://www.w3.org/1999/xlink" xmlns:ev="http://www.w3.org/2001/xml-events"
		xmlns:v="http://schemas.microsoft.com/visio/2003/SVGExtensions/" width="6.05171in" height="6.98324in"
		viewBox="0 0 435.723 502.793" xml:space="preserve" color-interpolation-filters="sRGB" class="st19">
	<v:documentProperties v:langID="1033" v:metric="true" v:viewMarkup="false">
		<v:userDefs>
			<v:ud v:nameU="msvNoAutoConnect" v:val="VT0(1):26"/>
			<v:ud v:nameU="msvSubprocessMaster" v:prompt="" v:val="VT4(Multiple process)"/>
		</v:userDefs>
	</v:documentProperties>

	<style type="text/css">
	<![CDATA[
		.st1 {visibility:visible}
		.st2 {fill:#5b9bd5;fill-opacity:0.22;filter:url(#filter_2);stroke:#5b9bd5;stroke-opacity:0.22}
		.st3 {fill:#5b9bd5;stroke:#c8c8c8;stroke-width:0.25}
		.st4 {fill:#feffff;font-family:Calibri;font-size:0.833336em;font-weight:bold}
		.st5 {font-size:1em}
		.st6 {fill:#feffff;font-family:Calibri;font-size:1.00001em;font-weight:bold}
		.st7 {stroke:#000000;stroke-linecap:round;stroke-linejoin:round;stroke-width:0.24}
		.st8 {fill:#ffffff;stroke:none;stroke-linecap:butt;stroke-width:7.2}
		.st9 {fill:#000000;font-family:Calibri;font-size:0.833336em;font-weight:bold}
		.st10 {marker-end:url(#mrkr4-68);stroke:#5b9bd5;stroke-linecap:round;stroke-linejoin:round;stroke-width:1}
		.st11 {fill:#5b9bd5;fill-opacity:1;stroke:#5b9bd5;stroke-opacity:1;stroke-width:0.28409090909091}
		.st12 {fill:#4f88bb;font-family:Calibri;font-size:0.833336em;font-weight:bold}
		.st13 {marker-end:url(#mrkr4-83);stroke:#5b9bd5;stroke-linecap:round;stroke-linejoin:round;stroke-width:1}
		.st14 {marker-end:url(#mrkr4-68);marker-start:url(#mrkr4-99);stroke:#5b9bd5;stroke-linecap:round;stroke-linejoin:round;stroke-width:1}
		.st15 {fill:none;filter:url(#filter_2);stroke:#5b9bd5;stroke-dasharray:1.5,3;stroke-opacity:0.22}
		.st16 {fill:none;stroke:#c7c8c8;stroke-dasharray:1.5,3;stroke-width:1.5}
		.st17 {fill:none;stroke:none;stroke-width:0.25}
		.st18 {fill:#5b9bd5;font-family:Calibri;font-size:1.99999em;font-weight:bold}
		.st19 {fill:none;fill-rule:evenodd;font-size:12px;overflow:visible;stroke-linecap:square;stroke-miterlimit:3}
	]]>
	</style>

	<defs id="Markers">
		<g id="lend4">
			<path d="M 2 1 L 0 0 L 2 -1 L 2 1 " style="stroke:none"/>
		</g>
		<marker id="mrkr4-68" class="st11" v:arrowType="4" v:arrowSize="2" v:setback="7.04" refX="-7.04" orient="auto"
				markerUnits="strokeWidth" overflow="visible">
			<use xlink:href="#lend4" transform="scale(-3.52,-3.52) "/>
		</marker>
		<marker id="mrkr4-83" class="st11" v:arrowType="4" v:arrowSize="2" v:setback="6.68" refX="-6.68" orient="auto"
				markerUnits="strokeWidth" overflow="visible">
			<use xlink:href="#lend4" transform="scale(-3.52,-3.52) "/>
		</marker>
		<marker id="mrkr4-99" class="st11" v:arrowType="4" v:arrowSize="2" v:setback="6.68" refX="6.68" orient="auto"
				markerUnits="strokeWidth" overflow="visible">
			<use xlink:href="#lend4" transform="scale(3.52) "/>
		</marker>
	</defs>
	<defs id="Filters">
		<filter id="filter_2">
			<feGaussianBlur stdDeviation="2"/>
		</filter>
	</defs>
	<g v:mID="0" v:index="1" v:groupContext="foregroundPage">
		<v:userDefs>
			<v:ud v:nameU="msvThemeOrder" v:val="VT0(0):26"/>
		</v:userDefs>
		<title>Page-1</title>
		<v:pageProperties v:drawingScale="0.0393701" v:pageScale="0.0393701" v:drawingUnits="24" v:shadowOffsetX="8.50394"
				v:shadowOffsetY="-8.50394"/>
		<v:layer v:name="Flowchart" v:index="0"/>
		<v:layer v:name="Connector" v:index="1"/>
		<v:layer v:name="Partition" v:index="2" v:glue="false"/>
		<g id="shape1-1" v:mID="1" v:groupContext="shape" v:layerMember="0" transform="translate(127.501,-335.159)">
			<title>Data process</title>
			<desc>Operator Node</desc>
			<v:custProps>
				<v:cp v:nameU="Cost" v:lbl="Cost" v:type="7" v:format="@" v:langID="1033"/>
				<v:cp v:nameU="Duration" v:lbl="Duration" v:type="2" v:langID="1033"/>
				<v:cp v:nameU="Resources" v:lbl="Resources" v:langID="1033"/>
			</v:custProps>
			<v:userDefs>
				<v:ud v:nameU="visVersion" v:val="VT0(15):26"/>
			</v:userDefs>
			<v:textBlock v:margins="rect(1,1,1,1)" v:tabSpace="42.5197"/>
			<v:textRect cx="28.3465" cy="474.447" width="56.7" height="56.6929"/>
			<g id="shadow1-2" v:groupContext="shadow" v:shadowOffsetX="0.345598" v:shadowOffsetY="-1.97279" v:shadowType="1"
					transform="matrix(1,0,0,1,0.345598,1.97279)" class="st1">
				<path d="M0 474.45 A28.3465 28.3465 0 0 1 56.69 474.45 A28.3465 28.3465 0 1 1 0 474.45 Z" class="st2"/>
			</g>
			<path d="M0 474.45 A28.3465 28.3465 0 0 1 56.69 474.45 A28.3465 28.3465 0 1 1 0 474.45 Z" class="st3"/>
			<text x="9.32" y="471.45" class="st4" v:langID="1033"><v:paragraph v:horizAlign="1"/><v:tabList/>Operator<v:newlineChar/><tspan
						x="17.16" dy="1.2em" class="st5">Node</tspan></text>		</g>
		<g id="shape2-8" v:mID="2" v:groupContext="shape" v:layerMember="0" transform="translate(127.501,-122.56)">
			<title>Data process.2</title>
			<desc>Arduino Node</desc>
			<v:custProps>
				<v:cp v:nameU="Cost" v:lbl="Cost" v:type="7" v:format="@" v:langID="1033"/>
				<v:cp v:nameU="Duration" v:lbl="Duration" v:type="2" v:langID="1033"/>
				<v:cp v:nameU="Resources" v:lbl="Resources" v:langID="1033"/>
			</v:custProps>
			<v:userDefs>
				<v:ud v:nameU="visVersion" v:val="VT0(15):26"/>
			</v:userDefs>
			<v:textBlock v:margins="rect(1,1,1,1)" v:tabSpace="42.5197"/>
			<v:textRect cx="28.3465" cy="474.447" width="56.7" height="56.6929"/>
			<g id="shadow2-9" v:groupContext="shadow" v:shadowOffsetX="0.345598" v:shadowOffsetY="-1.97279" v:shadowType="1"
					transform="matrix(1,0,0,1,0.345598,1.97279)" class="st1">
				<path d="M0 474.45 A28.3465 28.3465 0 0 1 56.69 474.45 A28.3465 28.3465 0 1 1 0 474.45 Z" class="st2"/>
			</g>
			<path d="M0 474.45 A28.3465 28.3465 0 0 1 56.69 474.45 A28.3465 28.3465 0 1 1 0 474.45 Z" class="st3"/>
			<text x="11.57" y="471.45" class="st4" v:langID="1033"><v:paragraph v:horizAlign="1"/><v:tabList/>Arduino<v:newlineChar/><tspan
						x="17.16" dy="1.2em" class="st5">Node</tspan></text>		</g>
		<g id="shape3-15" v:mID="3" v:groupContext="shape" v:layerMember="0" transform="translate(226.713,-335.159)">
			<title>Data process.3</title>
			<desc>Video Server Node</desc>
			<v:custProps>
				<v:cp v:nameU="Cost" v:lbl="Cost" v:type="7" v:format="@" v:langID="1033"/>
				<v:cp v:nameU="Duration" v:lbl="Duration" v:type="2" v:langID="1033"/>
				<v:cp v:nameU="Resources" v:lbl="Resources" v:langID="1033"/>
			</v:custProps>
			<v:userDefs>
				<v:ud v:nameU="visVersion" v:val="VT0(15):26"/>
			</v:userDefs>
			<v:textBlock v:margins="rect(1,1,1,1)" v:tabSpace="42.5197"/>
			<v:textRect cx="28.3465" cy="474.447" width="56.7" height="56.6929"/>
			<g id="shadow3-16" v:groupContext="shadow" v:shadowOffsetX="0.345598" v:shadowOffsetY="-1.97279" v:shadowType="1"
					transform="matrix(1,0,0,1,0.345598,1.97279)" class="st1">
				<path d="M0 474.45 A28.3465 28.3465 0 0 1 56.69 474.45 A28.3465 28.3465 0 1 1 0 474.45 Z" class="st2"/>
			</g>
			<path d="M0 474.45 A28.3465 28.3465 0 0 1 56.69 474.45 A28.3465 28.3465 0 1 1 0 474.45 Z" class="st3"/>
			<text x="1.83" y="471.45" class="st4" v:langID="1033"><v:paragraph v:horizAlign="1"/><v:tabList/>Video Server<v:newlineChar/><tspan
						x="17.16" dy="1.2em" class="st5">Node</tspan></text>		</g>
		<g id="shape4-22" v:mID="4" v:groupContext="shape" v:layerMember="0" transform="translate(127.501,-452.594)">
			<title>External interactor</title>
			<desc>Operator Station</desc>
			<v:custProps>
				<v:cp v:nameU="Cost" v:lbl="Cost" v:type="7" v:format="@" v:langID="1033"/>
				<v:cp v:nameU="Duration" v:lbl="Duration" v:type="2" v:langID="1033"/>
				<v:cp v:nameU="Resources" v:lbl="Resources" v:langID="1033"/>
			</v:custProps>
			<v:userDefs>
				<v:ud v:nameU="visVersion" v:val="VT0(15):26"/>
			</v:userDefs>
			<v:textBlock v:margins="rect(1,1,1,1)" v:tabSpace="42.5197"/>
			<v:textRect cx="28.3465" cy="488.62" width="56.7" height="28.3465"/>
			<g id="shadow4-23" v:groupContext="shadow" v:shadowOffsetX="0.345598" v:shadowOffsetY="-1.97279" v:shadowType="1"
					transform="matrix(1,0,0,1,0.345598,1.97279)" class="st1">
				<rect x="0" y="474.447" width="56.6929" height="28.3465" class="st2"/>
			</g>
			<rect x="0" y="474.447" width="56.6929" height="28.3465" class="st3"/>
			<text x="5.52" y="485.02" class="st6" v:langID="1033"><v:paragraph v:horizAlign="1"/><v:tabList/>Operator<v:newlineChar/><tspan
						x="10.47" dy="1.2em" class="st5">Station</tspan></text>		</g>
		<g id="shape5-29" v:mID="5" v:groupContext="shape" v:layerMember="0" transform="translate(127.501,-23.3478)">
			<title>External interactor.5</title>
			<desc>Arduino</desc>
			<v:custProps>
				<v:cp v:nameU="Cost" v:lbl="Cost" v:type="7" v:format="@" v:langID="1033"/>
				<v:cp v:nameU="Duration" v:lbl="Duration" v:type="2" v:langID="1033"/>
				<v:cp v:nameU="Resources" v:lbl="Resources" v:langID="1033"/>
			</v:custProps>
			<v:userDefs>
				<v:ud v:nameU="visVersion" v:val="VT0(15):26"/>
			</v:userDefs>
			<v:textBlock v:margins="rect(1,1,1,1)" v:tabSpace="42.5197"/>
			<v:textRect cx="28.3465" cy="488.62" width="56.7" height="28.3465"/>
			<g id="shadow5-30" v:groupContext="shadow" v:shadowOffsetX="0.345598" v:shadowOffsetY="-1.97279" v:shadowType="1"
					transform="matrix(1,0,0,1,0.345598,1.97279)" class="st1">
				<rect x="0" y="474.447" width="56.6929" height="28.3465" class="st2"/>
			</g>
			<rect x="0" y="474.447" width="56.6929" height="28.3465" class="st3"/>
			<text x="11.57" y="491.62" class="st4" v:langID="1033"><v:paragraph v:horizAlign="1"/><v:tabList/>Arduino</text>		</g>
		<g id="shape6-35" v:mID="6" v:groupContext="shape" v:layerMember="0" transform="translate(357.309,-335.159)">
			<title>Object</title>
			<desc>Main Camera</desc>
			<v:custProps>
				<v:cp v:nameU="Cost" v:lbl="Cost" v:type="7" v:format="@" v:langID="1033"/>
				<v:cp v:nameU="Duration" v:lbl="Duration" v:type="2" v:langID="1033"/>
				<v:cp v:nameU="Resources" v:lbl="Resources" v:langID="1033"/>
			</v:custProps>
			<v:userDefs>
				<v:ud v:nameU="visVersion" v:val="VT0(15):26"/>
			</v:userDefs>
			<v:textBlock v:margins="rect(1,1,1,1)" v:tabSpace="42.5197"/>
			<v:textRect cx="28.3465" cy="474.447" width="56.7" height="56.6929"/>
			<g id="shadow6-36" v:groupContext="shadow" v:shadowOffsetX="0.345598" v:shadowOffsetY="-1.97279" v:shadowType="1"
					transform="matrix(1,0,0,1,0.345598,1.97279)" class="st1">
				<path d="M8.15 490.5 A6.52164 8.14552 -180 0 0 17.54 497.4 A9.03289 11.2821 -180 0 0 33.88 494.84 A2.73223 3.41255
							 -180 0 0 36.83 498.53 A10.3961 12.9847 -180 0 0 46.81 493.14 A6.46003 8.06857 -180 0 0 53.85 488.04
							 A12.0356 9.6362 -111.25 0 0 49.59 477.09 A41.4317 33.1719 -71.16 0 0 56.68 466.31 A14.421 15.8748 -180
							 0 0 49.21 451.77 A8.6138 9.48218 -180 0 0 32.73 456.31 A7.75643 7.0461 -53.26 0 0 20.37 456.73 A11.3596
							 10.3193 -113.86 0 0 6.99 472.18 A8.38314 9.22826 -180 0 0 8.15 490.5 Z" class="st2"/>
			</g>
			<path d="M8.15 490.5 A6.52164 8.14552 -180 0 0 17.54 497.4 A9.03289 11.2821 -180 0 0 33.88 494.84 A2.73223 3.41255 -180
						 0 0 36.83 498.53 A10.3961 12.9847 -180 0 0 46.81 493.14 A6.46003 8.06857 -180 0 0 53.85 488.04 A12.0356
						 9.6362 -111.25 0 0 49.59 477.09 A41.4317 33.1719 -71.16 0 0 56.68 466.31 A14.421 15.8748 -180 0 0 49.21
						 451.77 A8.6138 9.48218 -180 0 0 32.73 456.31 A7.75643 7.0461 -53.26 0 0 20.37 456.73 A11.3596 10.3193 -113.86
						 0 0 6.99 472.18 A8.38314 9.22826 -180 0 0 8.15 490.5 Z" class="st3"/>
			<text x="17.6" y="471.45" class="st4" v:langID="1033"><v:paragraph v:horizAlign="1"/><v:tabList/>Main<v:newlineChar/><tspan
						x="12.4" dy="1.2em" class="st5">Camera</tspan></text>		</g>
		<g id="shape7-42" v:mID="7" v:groupContext="shape" v:layerMember="0" transform="translate(357.309,-264.293)">
			<title>Object.7</title>
			<desc>Secondary Camera</desc>
			<v:custProps>
				<v:cp v:nameU="Cost" v:lbl="Cost" v:type="7" v:format="@" v:langID="1033"/>
				<v:cp v:nameU="Duration" v:lbl="Duration" v:type="2" v:langID="1033"/>
				<v:cp v:nameU="Resources" v:lbl="Resources" v:langID="1033"/>
			</v:custProps>
			<v:userDefs>
				<v:ud v:nameU="visVersion" v:val="VT0(15):26"/>
			</v:userDefs>
			<v:textBlock v:margins="rect(1,1,1,1)" v:tabSpace="42.5197"/>
			<v:textRect cx="28.3465" cy="474.447" width="56.7" height="56.6929"/>
			<g id="shadow7-43" v:groupContext="shadow" v:shadowOffsetX="0.345598" v:shadowOffsetY="-1.97279" v:shadowType="1"
					transform="matrix(1,0,0,1,0.345598,1.97279)" class="st1">
				<path d="M8.15 490.5 A6.52164 8.14552 -180 0 0 17.54 497.4 A9.03289 11.2821 -180 0 0 33.88 494.84 A2.73223 3.41255
							 -180 0 0 36.83 498.53 A10.3961 12.9847 -180 0 0 46.81 493.14 A6.46003 8.06857 -180 0 0 53.85 488.04
							 A12.0356 9.6362 -111.25 0 0 49.59 477.09 A41.4317 33.1719 -71.16 0 0 56.68 466.31 A14.421 15.8748 -180
							 0 0 49.21 451.77 A8.6138 9.48218 -180 0 0 32.73 456.31 A7.75643 7.0461 -53.26 0 0 20.37 456.73 A11.3596
							 10.3193 -113.86 0 0 6.99 472.18 A8.38314 9.22826 -180 0 0 8.15 490.5 Z" class="st2"/>
			</g>
			<path d="M8.15 490.5 A6.52164 8.14552 -180 0 0 17.54 497.4 A9.03289 11.2821 -180 0 0 33.88 494.84 A2.73223 3.41255 -180
						 0 0 36.83 498.53 A10.3961 12.9847 -180 0 0 46.81 493.14 A6.46003 8.06857 -180 0 0 53.85 488.04 A12.0356
						 9.6362 -111.25 0 0 49.59 477.09 A41.4317 33.1719 -71.16 0 0 56.68 466.31 A14.421 15.8748 -180 0 0 49.21
						 451.77 A8.6138 9.48218 -180 0 0 32.73 456.31 A7.75643 7.0461 -53.26 0 0 20.37 456.73 A11.3596 10.3193 -113.86
						 0 0 6.99 472.18 A8.38314 9.22826 -180 0 0 8.15 490.5 Z" class="st3"/>
			<text x="6.71" y="471.45" class="st4" v:langID="1033"><v:paragraph v:horizAlign="1"/><v:tabList/>Secondary<v:newlineChar/><tspan
						x="12.4" dy="1.2em" class="st5">Camera</tspan></text>		</g>
		<g id="shape8-49" v:mID="8" v:groupContext="shape" v:layerMember="0" transform="translate(116.365,-221.773)">
			<title>Data store</title>
			<desc>Status Message Topic</desc>
			<v:custProps>
				<v:cp v:nameU="Cost" v:lbl="Cost" v:type="7" v:format="@" v:langID="1033"/>
				<v:cp v:nameU="Duration" v:lbl="Duration" v:type="2" v:langID="1033"/>
				<v:cp v:nameU="Resources" v:lbl="Resources" v:langID="1033"/>
			</v:custProps>
			<v:userDefs>
				<v:ud v:nameU="visVersion" v:val="VT0(15):26"/>
			</v:userDefs>
			<v:textBlock v:margins="rect(1,1,1,1)" v:tabSpace="42.5197"/>
			<v:textRect cx="38.9764" cy="488.62" width="77.96" height="28.3465"/>
			<path d="M0 502.79 L77.95 502.79" class="st7"/>
			<path d="M0 474.45 L77.95 474.45" class="st7"/>
			<rect v:rectContext="textBkgnd" x="6.63794" y="476.62" width="64.6771" height="24.0002" class="st8"/>
			<text x="6.64" y="485.62" class="st9" v:langID="1033"><v:paragraph v:horizAlign="1"/><v:tabList/>Status Message<v:newlineChar/><tspan
						x="27.81" dy="1.2em" class="st5">Topic</tspan></text>		</g>
		<g id="shape9-56" v:mID="9" v:groupContext="shape" v:layerMember="0" transform="translate(116.365,-264.293)">
			<title>Data store.9</title>
			<desc>Control Message Topic</desc>
			<v:custProps>
				<v:cp v:nameU="Cost" v:lbl="Cost" v:type="7" v:format="@" v:langID="1033"/>
				<v:cp v:nameU="Duration" v:lbl="Duration" v:type="2" v:langID="1033"/>
				<v:cp v:nameU="Resources" v:lbl="Resources" v:langID="1033"/>
			</v:custProps>
			<v:userDefs>
				<v:ud v:nameU="visVersion" v:val="VT0(15):26"/>
			</v:userDefs>
			<v:textBlock v:margins="rect(1,1,1,1)" v:tabSpace="42.5197"/>
			<v:textRect cx="38.9764" cy="488.62" width="77.96" height="28.3465"/>
			<path d="M0 502.79 L77.95 502.79" class="st7"/>
			<path d="M0 474.45 L77.95 474.45" class="st7"/>
			<rect v:rectContext="textBkgnd" x="4.16959" y="476.62" width="69.6135" height="24.0002" class="st8"/>
			<text x="4.17" y="485.62" class="st9" v:langID="1033"><v:paragraph v:horizAlign="1"/><v:tabList/>Control Message<v:newlineChar/><tspan
						x="27.81" dy="1.2em" class="st5">Topic</tspan></text>		</g>
		<g id="shape23-63" v:mID="23" v:groupContext="shape" v:layerMember="1" transform="translate(162.681,-335.159)">
			<title>Dynamic connector</title>
			<desc>Publish</desc>
			<v:textBlock v:margins="rect(4,4,4,4)" v:tabSpace="42.5197"/>
			<v:textRect cx="-7.08661" cy="524.053" width="50" height="20.0036"/>
			<path d="M-6.83 502.79 L-6.83 524.05 L-7.34 524.05 L-7.34 538.27" class="st10"/>
			<rect v:rectContext="textBkgnd" x="-22.2478" y="518.053" width="30.3223" height="12.0001" class="st8"/>
			<text x="-22.25" y="527.05" class="st12" v:langID="1033"><v:paragraph v:horizAlign="1"/><v:tabList/>Publish</text>		</g>
		<g id="shape24-71" v:mID="24" v:groupContext="shape" v:layerMember="1" transform="translate(162.681,-179.253)">
			<title>Dynamic connector.24</title>
			<desc>Publish</desc>
			<v:textBlock v:margins="rect(4,4,4,4)" v:tabSpace="42.5197"/>
			<v:textRect cx="-7.08661" cy="481.533" width="50" height="20.0036"/>
			<path d="M-6.83 502.79 L-6.83 481.53 L-7.34 481.53 L-7.34 467.31" class="st10"/>
			<rect v:rectContext="textBkgnd" x="-22.2478" y="475.534" width="30.3223" height="12.0001" class="st8"/>
			<text x="-22.25" y="484.53" class="st12" v:langID="1033"><v:paragraph v:horizAlign="1"/><v:tabList/>Publish</text>		</g>
		<g id="shape26-78" v:mID="26" v:groupContext="shape" v:layerMember="1" transform="translate(114.846,-235.946)">
			<title>Dynamic connector.26</title>
			<desc>Subscribe</desc>
			<v:textBlock v:margins="rect(4,4,4,4)" v:tabSpace="42.5197"/>
			<v:textRect cx="-26.6553" cy="435.085" width="50.31" height="20.0036"/>
			<path d="M1.52 502.79 C-8.61 502.79 -26.73 472.48 -26.83 440.77 C-26.91 412.27 -12.44 382.64 5.72 376.42 L6.07 376.36"
					class="st13"/>
			<rect v:rectContext="textBkgnd" x="-46.6772" y="429.085" width="40.0441" height="12.0001" class="st8"/>
			<text x="-46.68" y="438.09" class="st12" v:langID="1033"><v:paragraph v:horizAlign="1"/><v:tabList/>Subscribe</text>		</g>
		<g id="shape27-86" v:mID="27" v:groupContext="shape" v:layerMember="1" transform="translate(196.342,-278.466)">
			<title>Dynamic connector.27</title>
			<desc>Subscribe</desc>
			<v:textBlock v:margins="rect(4,4,4,4)" v:tabSpace="42.5197"/>
			<v:textRect cx="24.7768" cy="570.078" width="50.31" height="20.0036"/>
			<path d="M-2.02 502.79 C9.11 502.79 24.83 533.11 24.9 564.84 C24.97 593.29 12.47 622.86 -5.21 629.14 L-5.57 629.2"
					class="st13"/>
			<rect v:rectContext="textBkgnd" x="4.7549" y="564.078" width="40.0441" height="12.0001" class="st8"/>
			<text x="4.75" y="573.08" class="st12" v:langID="1033"><v:paragraph v:horizAlign="1"/><v:tabList/>Subscribe</text>		</g>
		<g id="shape28-93" v:mID="28" v:groupContext="shape" v:layerMember="1" transform="translate(148.76,-391.852)">
			<title>Dynamic connector.28</title>
			<desc>TCP</desc>
			<v:textBlock v:margins="rect(4,4,4,4)" v:tabSpace="42.5197"/>
			<v:textRect cx="7.08661" cy="472.422" width="50" height="20.0036"/>
			<path d="M7.09 496.11 L7.09 495.75 L7.09 449.09" class="st14"/>
			<rect v:rectContext="textBkgnd" x="-0.696711" y="466.422" width="15.5665" height="12.0001" class="st8"/>
			<text x="-0.7" y="475.42" class="st12" v:langID="1033"><v:paragraph v:horizAlign="1"/><v:tabList/>TCP</text>		</g>
		<g id="shape30-103" v:mID="30" v:groupContext="shape" v:layerMember="1" transform="translate(148.76,-51.6943)">
			<title>Dynamic connector.30</title>
			<desc>Serial Line</desc>
			<v:textBlock v:margins="rect(4,4,4,4)" v:tabSpace="42.5197"/>
			<v:textRect cx="7.08661" cy="467.36" width="52.78" height="20.0036"/>
			<path d="M7.09 496.11 L7.09 495.75 L7.09 438.97" class="st14"/>
			<rect v:rectContext="textBkgnd" x="-14.1681" y="461.36" width="42.5097" height="12.0001" class="st8"/>
			<text x="-14.17" y="470.36" class="st12" v:langID="1033"><v:paragraph v:horizAlign="1"/><v:tabList/>Serial Line</text>		</g>
		<g id="shape31-112" v:mID="31" v:groupContext="shape" v:layerMember="1" transform="translate(255.06,-391.852)">
			<title>Dynamic connector.31</title>
			<desc>UDP</desc>
			<v:textBlock v:margins="rect(4,4,4,4)" v:tabSpace="42.5197"/>
			<v:textRect cx="-0.309336" cy="470.275" width="50" height="20.0036"/>
			<path d="M0 502.79 L0 427.88 L-63.83 427.88" class="st10"/>
			<rect v:rectContext="textBkgnd" x="-9.38658" y="464.276" width="18.1544" height="12.0001" class="st8"/>
			<text x="-9.39" y="473.28" class="st12" v:langID="1033"><v:paragraph v:horizAlign="1"/><v:tabList/>UDP</text>		</g>
		<g id="shape34-119" v:mID="34" v:groupContext="shape" v:layerMember="2" transform="translate(21.4039,-102.718)">
			<title>Rounded Rectangle</title>
			<v:userDefs>
				<v:ud v:nameU="CTypeTopLeftSnip" v:prompt="" v:val="VT0(0):5"/>
				<v:ud v:nameU="CTypeTopRightSnip" v:prompt="" v:val="VT0(0):5"/>
				<v:ud v:nameU="CTypeBotLeftSnip" v:prompt="" v:val="VT0(0):5"/>
				<v:ud v:nameU="CTypeBotRightSnip" v:prompt="" v:val="VT0(0):5"/>
				<v:ud v:nameU="CornerLockHoriz" v:prompt="" v:val="VT0(1):5"/>
				<v:ud v:nameU="CornerLockVert" v:prompt="" v:val="VT0(1):5"/>
				<v:ud v:nameU="CornerLockDiag" v:prompt="" v:val="VT0(0):5"/>
				<v:ud v:nameU="TopLeftOffset" v:prompt="" v:val="VT0(0.15748031496063):24"/>
				<v:ud v:nameU="TopRightOffset" v:prompt="" v:val="VT0(0.15748031496063):24"/>
				<v:ud v:nameU="BotLeftOffset" v:prompt="" v:val="VT0(0.15748031496063):24"/>
				<v:ud v:nameU="BotRightOffset" v:prompt="" v:val="VT0(0.15748031496063):24"/>
				<v:ud v:nameU="visVersion" v:prompt="" v:val="VT0(15):26"/>
				<v:ud v:nameU="TopLeftOffset" v:prompt="" v:val="VT0(0.40748031496063):1"/>
				<v:ud v:nameU="TopRightOffset" v:prompt="" v:val="VT0(0.40748031496063):1"/>
				<v:ud v:nameU="BotLeftOffset" v:prompt="" v:val="VT0(0.40748031496063):1"/>
				<v:ud v:nameU="BotRightOffset" v:prompt="" v:val="VT0(0.40748031496063):1"/>
			</v:userDefs>
			<g id="shadow34-120" v:groupContext="shadow" v:shadowOffsetX="0.345598" v:shadowOffsetY="-1.97279" v:shadowType="1"
					transform="matrix(1,0,0,1,0.345598,1.97279)" class="st1">
				<path d="M29.34 502.79 L264.05 502.79 A29.3381 29.3381 -180 0 0 293.39 473.45 L293.39 224.57 A29.3381 29.3381 -180
							 0 0 264.05 195.23 L29.34 195.23 A29.3381 29.3381 -180 0 0 0 224.57 L0 473.45 A29.3381 29.3381 -180 0
							 0 29.34 502.79 Z" class="st15"/>
			</g>
			<path d="M29.34 502.79 L264.05 502.79 A29.3381 29.3381 -180 0 0 293.39 473.45 L293.39 224.57 A29.3381 29.3381 -180 0
						 0 264.05 195.23 L29.34 195.23 A29.3381 29.3381 -180 0 0 0 224.57 L0 473.45 A29.3381 29.3381 -180 0 0 29.34
						 502.79 Z" class="st16"/>
		</g>
		<g id="shape36-124" v:mID="36" v:groupContext="shape" v:layerMember="1" transform="translate(360.187,-356.419)">
			<title>Dynamic connector.36</title>
			<desc>USB</desc>
			<v:textBlock v:margins="rect(4,4,4,4)" v:tabSpace="42.5197"/>
			<v:textRect cx="-20.3975" cy="495.707" width="50" height="20.0036"/>
			<path d="M0 495.71 L-69.74 495.71" class="st10"/>
			<rect v:rectContext="textBkgnd" x="-28.8277" y="489.707" width="16.8604" height="12.0001" class="st8"/>
			<text x="-28.83" y="498.71" class="st12" v:langID="1033"><v:paragraph v:horizAlign="1"/><v:tabList/>USB</text>		</g>
		<g id="shape37-131" v:mID="37" v:groupContext="shape" v:layerMember="1" transform="translate(360.187,-292.639)">
			<title>Dynamic connector.37</title>
			<desc>USB</desc>
			<v:textBlock v:margins="rect(4,4,4,4)" v:tabSpace="42.5197"/>
			<v:textRect cx="-20.3975" cy="502.793" width="50" height="20.0036"/>
			<path d="M0 502.79 L-105.13 502.79 L-105.13 467.31" class="st10"/>
			<rect v:rectContext="textBkgnd" x="-28.8277" y="496.793" width="16.8604" height="12.0001" class="st8"/>
			<text x="-28.83" y="505.79" class="st12" v:langID="1033"><v:paragraph v:horizAlign="1"/><v:tabList/>USB</text>		</g>
		<g id="shape42-138" v:mID="42" v:groupContext="shape" transform="translate(21.4039,-367.757)">
			<title>Sheet.42</title>
			<desc>ROS</desc>
			<v:textBlock v:margins="rect(1,1,1,1)" v:tabSpace="42.5197"/>
			<v:textRect cx="47.4803" cy="490.746" width="94.97" height="24.0945"/>
			<rect x="0" y="478.699" width="94.9606" height="24.0945" class="st17"/>
			<text x="26.94" y="497.95" class="st18" v:langID="1033"><v:paragraph v:horizAlign="1"/><v:tabList/>ROS</text>		</g>
	</g>
</svg>
